<svg width="144" height="24" viewBox="0 0 144 24" fill="none" xmlns="http://www.w3.org/2000/svg">
<path fill-rule="evenodd" clip-rule="evenodd" d="M12.8 24L0 12L12.8 0L16 3L6.4 12L16 21L12.8 24Z" fill="#2B2B3B"/>
<path d="M49.6 24V15.5294H54.4V24H60.4V12.7059H64L52 0L40 12.7059H43.6V24H49.6Z" fill="#2B2B3B"/>
<path d="M73.92 24V6.312H76.92V13.416H84.672V6.312H87.672V24H84.672V16.056H76.92V24H73.92ZM93.8256 24L91.1616 21.336V14.136L93.8256 11.448H100.114L102.778 14.136V21.336L100.114 24H93.8256ZM95.1216 21.768L98.8176 21.744L99.8736 20.688V14.76L98.8176 13.704H95.1216L94.0656 14.76V20.688L95.1216 21.768ZM106.144 24V11.448H109.048V13.68L111.304 11.448H115.792L118.024 13.704L120.28 11.448H124.768L127.432 14.136V24H124.528V14.808L123.52 13.704H120.976L118.456 16.224V24H115.552V14.808L114.544 13.704H112L109.048 16.632V24H106.144ZM133.341 24L130.677 21.336V14.136L133.341 11.448H139.101L141.765 14.136V18.792H133.581V20.568L134.637 21.624H141.549V24H133.341ZM133.581 16.56H138.861V14.76L137.805 13.704H134.637L133.581 14.76V16.56Z" fill="#2B2B3B"/>
</svg>
