<svg width="22" height="24" viewBox="0 0 22 24" fill="none" xmlns="http://www.w3.org/2000/svg">
<path d="M19.5556 21.6H2.44444V8.4H19.5556M15.8889 0V2.4H6.11111V0H3.66667V2.4H2.44444C1.08778 2.4 0 3.468 0 4.8V21.6C0 22.2365 0.257539 22.847 0.715961 23.2971C1.17438 23.7471 1.79614 24 2.44444 24H19.5556C20.2039 24 20.8256 23.7471 21.284 23.2971C21.7425 22.847 22 22.2365 22 21.6V4.8C22 4.16348 21.7425 3.55303 21.284 3.10294C20.8256 2.65286 20.2039 2.4 19.5556 2.4H18.3333V0M17.1111 13.2H11V19.2H17.1111V13.2Z" fill="#2B2B3B"/>
</svg>
