<svg width="28" height="28" viewBox="0 0 28 28" fill="none" xmlns="http://www.w3.org/2000/svg">
<path d="M15.4392 0.00172249C16.4608 -0.00219768 17.4824 0.00806973 18.5037 0.0325216L18.7752 0.0423212C19.0888 0.0535208 19.3982 0.0675203 19.772 0.0843197C21.2615 0.154317 22.2779 0.38951 23.1696 0.735298C24.0936 1.09089 24.8719 1.57247 25.6503 2.35084C26.362 3.05027 26.9128 3.89632 27.2644 4.83016C27.6102 5.72193 27.8454 6.73969 27.9154 8.22924C27.9322 8.60163 27.9462 8.91242 27.9574 9.22601L27.9658 9.4976C27.9906 10.5184 28.0014 11.5396 27.998 12.5607L27.9994 13.6051V15.439C28.0028 16.4606 27.9921 17.4822 27.9672 18.5035L27.9588 18.7751C27.9476 19.0887 27.9336 19.3981 27.9168 19.7718C27.8468 21.2614 27.6088 22.2778 27.2644 23.1695C26.9139 24.1044 26.363 24.9511 25.6503 25.6502C24.9503 26.3619 24.1038 26.9127 23.1696 27.2644C22.2779 27.6102 21.2615 27.8454 19.772 27.9154C19.3982 27.9322 19.0888 27.9462 18.7752 27.9574L18.5037 27.9658C17.4824 27.9907 16.4608 28.0014 15.4392 27.998L14.3949 27.9994H12.5624C11.5408 28.0028 10.5192 27.9921 9.49792 27.9672L9.22633 27.9588C8.89401 27.9467 8.56175 27.9327 8.22959 27.9168C6.74006 27.8468 5.72371 27.6088 4.83056 27.2644C3.89637 26.9135 3.05018 26.3626 2.35129 25.6502C1.63879 24.9507 1.08747 24.1041 0.73577 23.1695C0.389988 22.2778 0.1548 21.2614 0.0848034 19.7718C0.0692122 19.4397 0.0552128 19.1074 0.0428056 18.7751L0.0358061 18.5035C0.00999644 17.4822 -0.00167088 16.4606 0.00080776 15.439V12.5607C-0.00309939 11.5396 0.00716784 10.5184 0.0316063 9.4976L0.0414057 9.22601C0.0526052 8.91242 0.0666044 8.60163 0.0834035 8.22924C0.1534 6.73829 0.388588 5.72333 0.73437 4.83016C1.08627 3.89586 1.63867 3.05004 2.35269 2.35224C3.0511 1.63932 3.89675 1.08749 4.83056 0.735298C5.72371 0.38951 6.73866 0.154317 8.22959 0.0843197L9.22633 0.0423212L9.49792 0.0353216C10.5187 0.0095244 11.5398 -0.00214312 12.561 0.000322644L15.4392 0.00172249ZM14.0001 7.00008C12.1437 7.00008 10.3633 7.73756 9.0506 9.05027C7.73791 10.363 7.00045 12.1434 7.00045 13.9998C7.00045 15.8563 7.73791 17.6367 9.0506 18.9494C10.3633 20.2621 12.1437 20.9996 14.0001 20.9996C15.8565 20.9996 17.6369 20.2621 18.9496 18.9494C20.2623 17.6367 20.9997 15.8563 20.9997 13.9998C20.9997 12.1434 20.2623 10.363 18.9496 9.05027C17.6369 7.73756 15.8565 7.00008 14.0001 7.00008ZM14.0001 9.79999C14.5516 9.7999 15.0978 9.90844 15.6073 10.1194C16.1169 10.3304 16.5799 10.6397 16.97 11.0296C17.36 11.4195 17.6695 11.8825 17.8806 12.392C18.0918 12.9015 18.2005 13.4476 18.2006 13.9991C18.2007 14.5507 18.0921 15.0968 17.8812 15.6064C17.6702 16.116 17.3609 16.579 16.971 16.9691C16.5811 17.3592 16.1181 17.6686 15.6086 17.8797C15.0991 18.0909 14.553 18.1996 14.0015 18.1997C12.8876 18.1997 11.8194 17.7572 11.0318 16.9696C10.2442 16.182 9.80171 15.1137 9.80171 13.9998C9.80171 12.886 10.2442 11.8177 11.0318 11.0301C11.8194 10.2425 12.8876 9.79999 14.0015 9.79999M21.3511 4.90016C20.8995 4.91823 20.4724 5.11036 20.1592 5.4363C19.8461 5.76223 19.6712 6.1967 19.6712 6.6487C19.6712 7.10069 19.8461 7.53516 20.1592 7.86109C20.4724 8.18703 20.8995 8.37916 21.3511 8.39724C21.8152 8.39724 22.2603 8.21287 22.5885 7.88469C22.9167 7.55651 23.101 7.11141 23.101 6.6473C23.101 6.18318 22.9167 5.73808 22.5885 5.4099C22.2603 5.08172 21.8152 4.89736 21.3511 4.89736" fill="white"/>
</svg>
