<svg width="20" height="24" viewBox="0 0 20 24" fill="none" xmlns="http://www.w3.org/2000/svg">
<path d="M10 2.1608C7.93721 2.1608 5.9589 2.95759 4.50028 4.37589C3.04166 5.79419 2.22222 7.71782 2.22222 9.7236C2.22222 12.8157 4.20222 15.7987 6.37556 18.1097C7.48742 19.2863 8.69991 20.3692 10 21.3465C11.3001 20.3699 12.5126 19.2878 13.6244 18.1118C15.7978 15.7987 17.7778 12.8168 17.7778 9.7236C17.7778 7.71782 16.9583 5.79419 15.4997 4.37589C14.0411 2.95759 12.0628 2.1608 10 2.1608ZM10 24L9.37 23.5786L9.36667 23.5765L9.36 23.5711L9.33778 23.556L9.25445 23.4987C8.79437 23.1735 8.34453 22.8348 7.90556 22.4831C6.78042 21.5844 5.72117 20.6104 4.73556 19.5682C2.46444 17.1524 0 13.653 0 9.7236C3.95203e-08 7.14474 1.05357 4.6715 2.92893 2.84798C4.8043 1.02445 7.34784 0 10 0C12.6522 0 15.1957 1.02445 17.0711 2.84798C18.9464 4.6715 20 7.14474 20 9.7236C20 13.653 17.5356 17.1535 15.2644 19.5682C13.9776 20.9292 12.5659 22.1732 11.0467 23.2848C10.9201 23.3767 10.7923 23.4671 10.6633 23.556L10.64 23.5711L10.6333 23.5765L10.6311 23.5776L10 23.9989V24ZM10 7.5628C9.41063 7.5628 8.8454 7.79045 8.42865 8.19568C8.0119 8.60091 7.77778 9.15052 7.77778 9.7236C7.77778 10.2967 8.0119 10.8463 8.42865 11.2515C8.8454 11.6567 9.41063 11.8844 10 11.8844C10.5894 11.8844 11.1546 11.6567 11.5713 11.2515C11.9881 10.8463 12.2222 10.2967 12.2222 9.7236C12.2222 9.15052 11.9881 8.60091 11.5713 8.19568C11.1546 7.79045 10.5894 7.5628 10 7.5628ZM5.55556 9.7236C5.55556 8.57744 6.02381 7.47822 6.8573 6.66777C7.6908 5.85731 8.82126 5.402 10 5.402C11.1787 5.402 12.3092 5.85731 13.1427 6.66777C13.9762 7.47822 14.4444 8.57744 14.4444 9.7236C14.4444 10.8698 13.9762 11.969 13.1427 12.7794C12.3092 13.5899 11.1787 14.0452 10 14.0452C8.82126 14.0452 7.6908 13.5899 6.8573 12.7794C6.02381 11.969 5.55556 10.8698 5.55556 9.7236Z" fill="#2B2B3B"/>
</svg>
