<svg width="28" height="28" viewBox="0 0 28 28" fill="none" xmlns="http://www.w3.org/2000/svg">
<path fill-rule="evenodd" clip-rule="evenodd" d="M23.3333 7.24958e-09C24.5237 -6.63005e-05 25.669 0.454728 26.5351 1.27133C27.4011 2.08793 27.9224 3.20461 27.9922 4.39289L28 4.66667V23.3333C28.0001 24.5237 27.5453 25.669 26.7287 26.5351C25.9121 27.4011 24.7954 27.9224 23.6071 27.9922L23.3333 28H4.66667C3.47634 28.0001 2.33098 27.5453 1.46493 26.7287C0.598878 25.9121 0.0776105 24.7954 0.00777796 23.6071L7.24958e-09 23.3333V4.66667C-6.63005e-05 3.47634 0.454728 2.33098 1.27133 1.46493C2.08793 0.598878 3.20461 0.0776105 4.39289 0.00777796L4.66667 7.24958e-09H23.3333ZM8.55556 17.1111C7.93672 17.1111 7.34322 17.3569 6.90564 17.7945C6.46805 18.2321 6.22222 18.8256 6.22222 19.4444C6.22222 20.0633 6.46805 20.6568 6.90564 21.0944C7.34322 21.5319 7.93672 21.7778 8.55556 21.7778C9.17439 21.7778 9.76789 21.5319 10.2055 21.0944C10.6431 20.6568 10.8889 20.0633 10.8889 19.4444C10.8889 18.8256 10.6431 18.2321 10.2055 17.7945C9.76789 17.3569 9.17439 17.1111 8.55556 17.1111ZM7.77778 11.6667C7.36522 11.6667 6.96956 11.8306 6.67783 12.1223C6.38611 12.414 6.22222 12.8097 6.22222 13.2222C6.22222 13.6348 6.38611 14.0304 6.67783 14.3222C6.96956 14.6139 7.36522 14.7778 7.77778 14.7778C9.22173 14.7778 10.6065 15.3514 11.6276 16.3724C12.6486 17.3935 13.2222 18.7783 13.2222 20.2222C13.2222 20.6348 13.3861 21.0304 13.6778 21.3222C13.9696 21.6139 14.3652 21.7778 14.7778 21.7778C15.1903 21.7778 15.586 21.6139 15.8777 21.3222C16.1694 21.0304 16.3333 20.6348 16.3333 20.2222C16.3333 17.9531 15.4319 15.777 13.8275 14.1725C12.223 12.5681 10.0469 11.6667 7.77778 11.6667ZM8.55556 6.22222C8.26 6.22222 7.966 6.23156 7.67511 6.25178C7.27105 6.28878 6.89743 6.4822 6.63396 6.79078C6.37049 7.09937 6.23803 7.49868 6.26481 7.90355C6.2916 8.30842 6.47553 8.6868 6.77736 8.95798C7.07918 9.22916 7.47503 9.37167 7.88044 9.35511C9.31896 9.25873 10.7615 9.4711 12.1112 9.97797C13.4609 10.4848 14.6866 11.2745 15.706 12.294C16.7255 13.3134 17.5152 14.5391 18.022 15.8888C18.5289 17.2385 18.7413 18.681 18.6449 20.1196C18.626 20.3263 18.6486 20.5347 18.7115 20.7325C18.7743 20.9304 18.8762 21.1136 19.011 21.2715C19.1457 21.4294 19.3108 21.5587 19.4963 21.6518C19.6818 21.7449 19.8841 21.7999 20.0913 21.8136C20.2984 21.8273 20.5062 21.7994 20.7024 21.7316C20.8985 21.6637 21.0792 21.5573 21.2336 21.4185C21.388 21.2798 21.5131 21.1116 21.6015 20.9237C21.6899 20.7359 21.7398 20.5323 21.7482 20.3249C21.8688 18.5184 21.6171 16.7064 21.0086 15.0012C20.4002 13.2959 19.4481 11.7338 18.2112 10.4116C16.9743 9.08947 15.4791 8.0354 13.8182 7.31475C12.1573 6.59411 10.3661 6.22225 8.55556 6.22222Z" fill="white"/>
</svg>
